<svg id="svg" version="1.1" width="400" height="400" viewBox="0 0 400 400" xmlns="http://www.w3.org/2000/svg" xmlns:xlink="http://www.w3.org/1999/xlink" ><g id="svgg"><path id="path0" d="M262.305 19.941 C 235.640 25.274,211.148 44.550,201.977 67.422 C 193.611 88.287,198.949 111.748,213.857 119.630 C 225.591 125.834,247.012 114.327,265.670 91.797 C 269.713 86.916,275.000 79.974,275.000 79.548 C 275.000 79.402,276.206 77.484,277.679 75.286 C 285.104 64.210,290.493 53.485,294.214 42.383 C 298.246 30.350,292.502 21.674,283.398 26.048 C 281.588 26.918,281.417 26.937,281.055 26.317 C 278.057 21.181,269.928 18.417,262.305 19.941 M349.805 19.922 C 305.773 28.170,274.125 73.422,289.473 106.189 C 298.655 125.793,315.153 126.230,337.857 107.469 C 361.717 87.753,386.456 45.524,382.679 30.961 C 381.200 25.262,376.869 23.336,371.312 25.905 C 369.203 26.881,368.957 26.919,368.626 26.326 C 365.782 21.245,357.601 18.461,349.805 19.922 M53.951 20.986 C 51.898 21.374,50.891 23.234,47.861 32.233 C 45.204 40.122,42.527 43.945,31.366 55.781 C 17.375 70.619,12.109 78.409,12.109 84.269 C 12.109 89.876,15.195 96.083,19.104 98.340 C 20.091 98.910,21.020 99.554,21.168 99.771 C 21.316 99.988,23.194 100.236,25.341 100.323 C 33.449 100.648,40.974 97.317,59.180 85.341 C 71.604 77.168,71.635 78.224,59.463 94.895 C 49.645 108.342,48.322 116.468,54.827 123.373 C 59.093 127.901,61.311 126.846,65.326 118.382 C 70.126 108.265,71.804 104.951,74.609 100.056 C 80.640 89.528,94.095 68.601,106.604 50.292 C 110.384 44.760,114.749 38.372,116.304 36.096 C 121.729 28.159,121.824 22.891,116.558 22.049 C 114.544 21.727,113.158 22.407,111.199 24.676 C 110.396 25.606,107.917 28.477,105.690 31.055 C 90.680 48.434,54.492 79.753,50.042 79.215 C 47.358 78.890,48.623 76.861,58.465 65.699 C 63.447 60.048,72.058 47.080,74.203 41.999 C 79.253 30.035,67.975 18.334,53.951 20.986 M185.878 21.494 C 182.399 23.525,165.465 53.032,158.983 68.359 C 156.515 74.195,156.840 73.761,155.725 72.714 C 154.032 71.123,149.976 70.577,148.047 71.680 C 147.510 71.987,146.689 72.244,146.224 72.252 C 145.758 72.259,145.319 72.420,145.247 72.609 C 145.176 72.797,143.677 73.673,141.916 74.555 C 140.155 75.437,136.415 77.480,133.605 79.095 C 130.794 80.710,128.365 82.031,128.206 82.031 C 127.820 82.031,126.035 78.924,123.215 73.345 C 120.764 68.493,120.350 68.124,119.250 69.803 C 117.872 71.906,118.719 75.344,122.069 81.248 C 124.251 85.093,124.297 84.719,121.387 86.732 C 107.745 96.167,99.928 106.563,102.303 112.109 C 106.075 120.920,111.447 119.461,125.830 105.723 C 129.926 101.810,132.351 99.772,132.576 100.052 C 132.640 100.131,133.407 101.262,134.281 102.566 C 135.155 103.870,136.230 105.364,136.670 105.886 C 137.110 106.409,138.751 108.497,140.317 110.528 C 143.971 115.266,146.255 116.631,147.053 114.553 C 147.379 113.702,145.261 109.382,141.545 103.320 C 136.255 94.690,136.054 96.267,143.186 90.451 C 145.537 88.534,148.742 85.833,150.309 84.449 C 153.864 81.308,153.816 81.206,151.778 87.526 C 145.889 105.785,146.180 117.735,152.639 122.925 C 153.658 123.744,154.580 124.521,154.688 124.653 C 155.988 126.240,161.892 127.099,164.004 126.007 C 173.305 121.197,203.307 32.080,197.958 25.150 C 195.457 21.910,188.680 19.859,185.878 21.494 M282.091 37.831 C 290.926 45.724,249.354 106.250,235.098 106.250 C 225.251 106.250,232.496 77.226,246.994 58.594 C 258.631 43.638,276.657 32.975,282.091 37.831 M369.753 37.966 C 377.554 44.815,342.267 99.200,325.871 105.599 C 320.246 107.794,318.082 105.471,318.471 97.656 C 319.654 73.879,343.372 41.323,362.288 37.514 C 363.371 37.296,364.609 37.048,365.039 36.963 C 367.297 36.519,368.362 36.745,369.753 37.966 M193.176 135.917 C 193.050 136.121,193.153 137.103,193.403 138.098 C 193.857 139.901,193.683 146.886,193.137 148.730 C 192.851 149.700,193.874 149.871,196.929 149.366 L 198.350 149.131 197.955 147.710 C 197.729 146.897,197.641 143.991,197.750 140.918 L 197.940 135.547 195.673 135.547 C 194.426 135.547,193.302 135.714,193.176 135.917 M103.862 136.345 C 99.662 136.831,97.634 138.316,98.404 140.342 C 98.869 141.565,101.345 142.613,106.892 143.934 C 111.821 145.107,112.921 145.680,112.275 146.734 C 111.333 148.272,105.094 148.391,101.802 146.935 C 99.961 146.121,97.656 146.594,97.656 147.786 C 97.656 149.322,109.114 150.219,113.517 149.027 C 119.800 147.326,117.864 144.119,109.375 142.162 C 103.492 140.806,101.396 139.416,103.521 138.278 C 105.864 137.024,111.719 138.149,111.719 139.854 C 111.719 140.536,111.989 140.625,114.063 140.625 C 116.292 140.625,116.406 140.578,116.406 139.664 C 116.406 136.996,110.880 135.535,103.862 136.345 M122.168 136.359 C 120.987 137.047,121.323 138.216,122.779 138.489 C 125.422 138.985,128.184 137.349,126.503 136.283 C 125.780 135.825,123.002 135.874,122.168 136.359 M226.563 139.063 C 226.563 139.698,226.302 139.844,225.167 139.844 C 223.137 139.844,223.424 141.161,225.492 141.332 L 226.953 141.453 226.953 144.555 C 226.953 149.146,227.979 149.841,234.335 149.552 C 237.700 149.399,238.284 149.147,237.638 148.126 C 237.299 147.591,236.612 147.461,234.136 147.461 L 231.055 147.461 230.941 144.451 L 230.827 141.441 233.675 141.326 C 237.664 141.165,237.810 140.095,233.866 139.923 C 231.432 139.817,231.229 139.743,231.451 139.044 C 231.675 138.340,231.495 138.281,229.128 138.281 C 226.823 138.281,226.563 138.361,226.563 139.063 M142.383 139.818 C 141.523 139.982,140.337 140.250,139.746 140.413 C 139.042 140.608,138.672 140.560,138.672 140.277 C 138.672 140.004,137.719 139.844,136.091 139.844 C 133.841 139.844,133.542 139.927,133.761 140.496 C 134.542 142.533,134.763 144.758,134.387 146.796 C 134.165 147.992,133.984 149.115,133.984 149.290 C 133.984 149.665,136.495 149.713,138.206 149.370 C 139.287 149.154,139.366 149.040,139.036 148.173 C 138.836 147.646,138.672 146.111,138.672 144.763 L 138.672 142.311 140.182 141.859 C 144.966 140.425,146.284 141.420,145.973 146.226 L 145.747 149.713 148.349 149.446 C 151.410 149.133,151.295 149.203,150.818 147.949 C 150.612 147.405,150.387 145.950,150.319 144.715 L 150.195 142.469 151.563 141.967 C 153.197 141.368,156.213 141.271,157.031 141.791 C 157.491 142.084,157.607 142.966,157.569 145.887 C 157.515 150.088,157.308 149.878,161.003 149.371 L 162.741 149.133 162.238 146.735 C 161.961 145.415,161.731 143.593,161.727 142.685 C 161.713 139.778,156.588 138.600,151.605 140.357 C 150.152 140.870,149.765 140.882,149.066 140.434 C 148.016 139.762,144.411 139.430,142.383 139.818 M208.297 139.826 C 205.851 140.212,204.297 141.133,204.297 142.197 C 204.297 143.382,208.257 143.333,209.050 142.138 C 210.281 140.284,215.304 140.934,215.543 142.978 L 215.656 143.945 211.051 143.955 C 204.942 143.967,203.029 144.884,203.683 147.488 C 204.181 149.474,209.623 150.320,213.805 149.062 C 215.366 148.592,215.625 148.592,215.625 149.062 C 215.625 149.455,216.146 149.608,217.480 149.603 C 220.189 149.595,220.449 149.327,219.893 147.119 C 219.640 146.111,219.522 144.618,219.631 143.802 C 220.084 140.425,215.253 138.731,208.297 139.826 M245.392 139.869 C 240.647 140.705,238.804 143.198,240.417 146.598 C 242.204 150.363,254.671 150.796,257.203 147.181 C 260.471 142.515,253.801 138.386,245.392 139.869 M121.735 140.918 C 121.919 141.509,122.046 143.726,122.016 145.845 L 121.961 149.697 124.254 149.531 C 127.048 149.329,127.033 149.344,126.506 147.439 C 126.091 145.942,126.250 141.895,126.776 140.523 C 127.009 139.917,126.734 139.844,124.218 139.844 L 121.400 139.844 121.735 140.918 M168.953 140.527 C 169.111 140.903,169.366 142.673,169.520 144.459 C 169.946 149.421,173.312 150.964,179.652 149.106 C 181.331 148.614,181.641 148.608,181.641 149.066 C 181.641 149.455,182.169 149.608,183.496 149.603 C 186.162 149.595,186.533 149.266,185.932 147.445 C 185.457 146.006,185.584 142.001,186.151 140.523 C 186.384 139.917,186.109 139.844,183.594 139.844 C 181.062 139.844,180.805 139.913,181.059 140.527 C 181.215 140.903,181.431 142.457,181.539 143.979 L 181.735 146.747 179.933 147.252 C 174.407 148.799,172.884 147.340,173.930 141.504 L 174.228 139.844 171.447 139.844 C 168.950 139.844,168.696 139.913,168.953 140.527 M262.726 141.113 C 263.137 142.727,263.174 146.674,262.794 148.385 L 262.501 149.700 265.025 149.540 C 268.039 149.348,268.059 149.333,267.571 147.633 C 267.360 146.897,267.188 145.393,267.188 144.292 L 267.188 142.289 269.004 141.780 C 270.715 141.301,270.861 141.321,271.508 142.120 C 272.338 143.145,275.550 143.355,275.913 142.408 C 276.682 140.405,272.145 139.018,268.881 140.259 C 268.111 140.552,267.749 140.552,267.651 140.259 C 267.573 140.022,266.414 139.844,264.958 139.844 L 262.402 139.844 262.726 141.113 M252.344 142.140 C 254.702 143.859,253.562 147.076,250.389 147.657 C 246.564 148.356,243.727 146.524,244.336 143.748 C 244.904 141.166,249.689 140.204,252.344 142.140 M214.121 145.501 C 217.503 146.030,215.011 147.701,210.782 147.739 C 207.889 147.765,206.264 146.049,208.691 145.530 C 211.008 145.036,211.148 145.035,214.121 145.501 " stroke="none" fill="#ffffff" fill-rule="evenodd"></path><path id="path1" d="" stroke="none" fill="#00246d" fill-rule="evenodd"></path><path id="path2" d="" stroke="none" fill="#0000ff" fill-rule="evenodd"></path><path id="path3" d="M248.828 20.320 C 223.978 24.718,197.308 47.308,189.524 70.553 C 181.202 95.402,192.964 122.882,211.261 121.340 C 215.341 120.996,215.658 120.683,213.165 119.460 C 199.862 112.936,193.965 89.894,200.617 70.424 C 208.360 47.757,236.065 24.125,259.180 20.469 C 261.004 20.180,261.055 20.142,259.961 19.892 C 257.812 19.400,252.975 19.586,248.828 20.320 M339.453 19.797 C 324.277 22.275,308.805 30.161,296.172 41.857 C 294.020 43.850,293.657 44.426,292.358 47.909 C 289.258 56.223,284.546 65.158,278.211 74.738 C 274.415 80.478,273.902 82.571,274.417 90.234 C 275.766 110.294,287.641 123.959,301.198 121.052 L 303.216 120.619 301.520 119.860 C 285.547 112.708,280.525 84.255,291.450 62.801 C 301.481 43.104,326.959 23.584,346.680 20.487 C 348.514 20.199,348.562 20.163,347.461 19.902 C 346.201 19.603,341.056 19.535,339.453 19.797 M42.606 21.075 C 40.598 21.584,37.444 27.984,35.571 35.352 C 34.645 38.994,29.585 45.600,19.434 56.418 C 2.986 73.949,-0.911 81.020,1.503 88.948 C 3.674 96.076,7.756 99.928,13.541 100.306 C 18.309 100.618,22.355 99.796,19.896 99.015 C 17.639 98.299,14.507 94.280,12.901 90.039 C 9.800 81.851,13.325 74.969,29.495 57.647 C 40.079 46.308,45.601 39.219,46.534 35.772 C 47.495 32.219,50.594 24.027,51.459 22.754 C 51.967 22.005,52.286 21.297,52.169 21.179 C 51.796 20.806,44.002 20.721,42.606 21.075 M174.063 22.284 C 169.067 26.670,152.741 55.532,146.845 70.401 L 146.113 72.247 148.154 71.441 C 150.544 70.499,153.466 70.839,155.518 72.300 C 156.160 72.758,156.728 73.069,156.781 72.992 C 156.833 72.915,157.649 71.006,158.593 68.750 C 163.634 56.715,176.305 33.748,182.341 25.705 C 183.478 24.190,184.357 22.906,184.294 22.851 C 181.858 20.744,176.176 20.428,174.063 22.284 M102.498 22.617 C 101.832 23.024,98.816 26.143,95.796 29.549 C 87.111 39.347,69.041 56.833,61.797 62.449 C 60.071 63.788,48.828 77.157,48.828 77.871 C 48.828 81.129,54.324 77.957,67.521 67.082 C 85.313 52.420,109.844 28.192,109.436 25.685 C 108.939 22.627,105.196 20.972,102.498 22.617 M274.292 37.762 C 271.882 38.333,271.832 38.370,272.070 39.451 C 274.291 49.564,251.126 86.952,233.915 101.034 C 230.894 103.505,230.780 103.832,232.452 105.239 C 240.231 111.785,269.453 78.453,280.536 50.391 C 285.234 38.495,283.763 35.520,274.292 37.762 M361.875 37.744 L 359.492 38.309 359.665 40.151 C 360.774 51.996,336.515 90.128,320.269 102.076 C 318.497 103.378,318.463 103.529,319.630 104.885 C 326.655 113.053,356.580 79.459,368.171 50.391 C 372.858 38.639,371.298 35.508,361.875 37.744 M108.448 69.629 C 106.974 71.967,107.260 73.479,110.445 80.177 C 111.645 82.702,112.555 84.822,112.466 84.888 C 93.079 99.260,87.458 107.384,92.166 114.227 C 94.707 117.920,98.249 118.491,102.622 115.914 L 103.877 115.174 102.818 113.570 C 98.707 107.346,107.272 95.629,123.749 84.934 C 124.124 84.691,120.955 79.725,120.569 79.952 C 120.321 80.099,119.480 80.615,118.702 81.099 L 117.286 81.979 114.337 77.025 C 112.715 74.300,111.092 71.323,110.730 70.410 C 109.996 68.560,109.278 68.314,108.448 69.629 M137.500 71.156 C 133.558 72.952,125.391 77.102,125.391 77.309 C 125.391 77.449,126.024 78.576,126.797 79.813 L 128.204 82.062 129.629 81.216 C 133.542 78.894,139.967 75.323,142.301 74.172 C 143.742 73.461,144.922 72.746,144.922 72.582 C 144.922 71.441,139.262 70.352,137.500 71.156 M64.415 82.165 C 50.283 91.152,51.862 89.920,48.276 94.760 C 38.346 108.161,37.071 115.819,43.573 123.015 C 48.440 128.403,54.868 124.890,51.859 118.488 C 48.810 112.000,50.538 106.920,60.422 93.323 C 66.651 84.754,69.351 80.078,68.071 80.078 C 67.865 80.078,66.220 81.017,64.415 82.165 M150.623 84.415 C 149.139 85.719,145.780 88.515,143.158 90.630 C 136.760 95.789,136.829 95.253,141.555 103.092 C 147.174 112.410,147.892 114.062,146.797 115.156 C 145.485 116.468,142.828 114.396,138.925 109.018 L 136.523 105.708 136.305 109.397 C 136.185 111.426,136.053 112.846,136.012 112.554 C 135.937 112.015,132.700 106.127,130.979 103.397 L 130.042 101.911 128.068 103.563 C 125.407 105.792,125.407 105.785,127.937 109.206 C 132.502 115.380,135.587 117.298,136.371 114.453 L 136.641 113.477 136.680 114.536 C 136.953 121.966,147.819 129.199,153.502 125.734 L 154.856 124.909 153.893 124.151 C 145.745 117.740,145.149 106.676,151.870 86.579 C 152.706 84.078,153.374 82.034,153.355 82.038 C 153.336 82.042,152.107 83.111,150.623 84.415 " stroke="none" fill="#2d6293" fill-rule="evenodd"></path><path id="path4" d="M101.551 35.449 L 99.023 38.086 101.660 35.558 C 104.109 33.210,104.475 32.813,104.188 32.813 C 104.128 32.813,102.941 33.999,101.551 35.449 M278.418 36.994 C 278.901 37.088,279.692 37.088,280.176 36.994 C 280.659 36.901,280.264 36.825,279.297 36.825 C 278.330 36.825,277.935 36.901,278.418 36.994 M366.313 36.995 C 366.799 37.088,367.502 37.085,367.876 36.987 C 368.249 36.889,367.852 36.813,366.992 36.817 C 366.133 36.822,365.827 36.902,366.313 36.995 M370.794 40.234 C 370.794 40.986,370.874 41.294,370.972 40.918 C 371.071 40.542,371.071 39.927,370.972 39.551 C 370.874 39.175,370.794 39.482,370.794 40.234 M305.065 44.043 L 302.930 46.289 305.176 44.154 C 306.411 42.980,307.422 41.969,307.422 41.908 C 307.422 41.618,307.048 41.956,305.065 44.043 M87.683 49.316 L 85.352 51.758 87.793 49.426 C 89.136 48.144,90.234 47.045,90.234 46.985 C 90.234 46.696,89.849 47.049,87.683 49.316 M31.036 55.957 L 29.492 57.617 31.152 56.073 C 32.696 54.637,32.992 54.297,32.696 54.297 C 32.633 54.297,31.886 55.044,31.036 55.957 M11.836 83.984 C 11.836 85.166,11.909 85.649,11.999 85.059 C 12.088 84.468,12.088 83.501,11.999 82.910 C 11.909 82.319,11.836 82.803,11.836 83.984 M197.799 87.695 C 197.800 89.844,197.866 90.673,197.945 89.538 C 198.024 88.403,198.023 86.645,197.943 85.631 C 197.863 84.618,197.798 85.547,197.799 87.695 M109.167 96.582 L 106.836 99.023 109.277 96.692 C 111.545 94.526,111.897 94.141,111.609 94.141 C 111.548 94.141,110.450 95.239,109.167 96.582 M147.346 109.050 C 147.302 110.912,147.164 112.758,147.041 113.152 C 146.833 113.814,146.848 113.817,147.251 113.191 C 147.516 112.781,147.636 111.168,147.557 109.089 L 147.426 105.664 147.346 109.050 M50.497 112.891 C 50.497 113.857,50.573 114.253,50.666 113.770 C 50.759 113.286,50.759 112.495,50.666 112.012 C 50.573 111.528,50.497 111.924,50.497 112.891 M294.531 114.575 C 294.531 114.643,295.103 115.214,295.801 115.845 L 297.070 116.992 295.923 115.723 C 294.854 114.539,294.531 114.274,294.531 114.575 " stroke="none" fill="#84a3c0" fill-rule="evenodd"></path></g></svg>